<?xml version="1.0" encoding="UTF-8"?>
<svg width="67px" height="68px" viewBox="0 0 67 68" version="1.1" xmlns="http://www.w3.org/2000/svg" xmlns:xlink="http://www.w3.org/1999/xlink">
    <!-- Generator: Sketch 48.2 (47327) - http://www.bohemiancoding.com/sketch -->
    <title>Icon</title>
    <desc>Created with Sketch.</desc>
    <defs></defs>
    <g id="03-Features-View" stroke="none" stroke-width="1" fill="none" fill-rule="evenodd" transform="translate(-1007.000000, -822.000000)">
        <g id="PRODUCTS" transform="translate(275.000000, 550.000000)">
            <g id="Box-03" transform="translate(640.000000, 272.000000)">
                <g id="Icon" transform="translate(92.000000, 0.000000)">
                    <path d="M22.5864076,0.423557172 C26.4380003,0.141185724 30.2425311,4.13686489e-16 34,0 C37.0793165,0 40.158633,0.0948219005 43.2379495,0.284465701 L43.2379495,0.284465735 C55.7810791,1.05695105 65.8013143,11.0205983 66.644823,23.5591519 C66.8816077,27.0788987 67,30.5591814 67,34 C67,37.7647871 66.8582638,41.5295741 66.5747913,45.2943612 L66.5747894,45.2943611 C65.7028551,56.8744888 56.6648961,66.1690699 45.1137119,67.3648003 C41.0228747,67.7882668 36.9849707,68 33,68 C29.3379141,68 25.6758282,67.8211884 22.0137423,67.4635651 L22.0137423,67.4635658 C10.3861886,66.3280698 1.26552692,56.9847861 0.410709901,45.333235 C0.1369033,41.6011244 2.5802588e-16,37.8233794 0,34 C0,30.2216963 0.133694289,26.4433925 0.401082867,22.6650888 L0.401082567,22.6650888 C1.24297101,10.7688803 10.6923675,1.2955438 22.5864076,0.423557172 Z" id="BG" fill="#2CCDF2"></path>
                    <g id="smartphone" transform="translate(25.000000, 20.000000)">
                        <rect id="Rectangle-path" stroke="#FFFFFF" stroke-width="2.73" stroke-linecap="round" stroke-linejoin="round" x="0" y="0" width="18" height="28" rx="2.73"></rect>
                        <path d="M1.38461538,18.2 L16.6153846,18.2" id="Shape" stroke="#FFFFFF" stroke-width="2.8" stroke-linecap="round" stroke-linejoin="round"></path>
                        <ellipse id="Oval" fill="#FFFFFF" cx="9" cy="23.1" rx="2.07692308" ry="2.1"></ellipse>
                    </g>
                </g>
            </g>
        </g>
    </g>
</svg>