<svg xmlns="http://www.w3.org/2000/svg" width="67" height="68" viewBox="0 0 67 68">
    <g fill="none" fill-rule="evenodd">
        <path fill="#5AD78B" d="M22.586.424C26.438.14 30.243 0 34 0c3.08 0 6.159.095 9.238.284C55.78 1.057 65.8 11.021 66.645 23.56c.237 3.52.355 7 .355 10.441 0 3.765-.142 7.53-.425 11.294-.872 11.58-9.91 20.875-21.461 22.07C41.023 67.789 36.985 68 33 68c-3.662 0-7.324-.179-10.986-.536C10.386 66.328 1.266 56.984.41 45.334.137 41.6 0 37.823 0 34c0-3.778.134-7.557.401-11.335C1.243 10.77 10.692 1.295 22.586.424z"/>
        <g stroke="#FFF" stroke-linecap="round" stroke-linejoin="round" stroke-width="2.545" transform="translate(20 24)">
            <rect width="28" height="20" rx="2.545"/>
            <path d="M0 7.5h28"/>
        </g>
    </g>
</svg>
